<svg width="18" height="10" viewBox="0 0 18 10" fill="none" xmlns="http://www.w3.org/2000/svg">
<path fill-rule="evenodd" clip-rule="evenodd" d="M1.10067 4.83311L1.30244 4.586C5.21444 -0.195333 12.5256 -0.195333 16.4376 4.586L16.6393 4.83311C16.7736 4.99667 16.7736 5.23222 16.6393 5.39578L16.4376 5.64289C12.5256 10.4242 5.21444 10.4242 1.30244 5.64289L1.10067 5.39578C0.966444 5.23222 0.966444 4.99667 1.10067 4.83311Z" stroke="#000104" stroke-opacity="0.48"/>
<path fill-rule="evenodd" clip-rule="evenodd" d="M8.87028 6.00325C8.37961 6.00325 7.98139 5.60592 7.98139 5.11436C7.98139 4.6228 8.37961 4.22547 8.87028 4.22547C9.36095 4.22547 9.75917 4.6228 9.75917 5.11436C9.75917 5.60592 9.36095 6.00325 8.87028 6.00325ZM8.87028 2.44769C7.39739 2.44769 6.20361 3.64147 6.20361 5.11436C6.20361 6.58725 7.39739 7.78103 8.87028 7.78103C10.3432 7.78103 11.5369 6.58725 11.5369 5.11436C11.5369 3.64147 10.3432 2.44769 8.87028 2.44769Z" fill="#000104" fill-opacity="0.48"/>
</svg>
