<svg width="108" height="32" viewBox="0 0 108 32" fill="none" xmlns="http://www.w3.org/2000/svg">
<path d="M16.2909 2.61816H13.5758C13.3818 2.61816 13.1879 2.76362 13.1879 3.00604V15.6606C13.1879 19.9757 11.5879 22.1091 8.29091 22.1091C5.04242 22.1091 3.49091 20.0242 3.49091 15.6606V11.4909C3.49091 11.3939 3.44242 11.297 3.39394 11.2485C3.34545 11.2 3.24848 11.1515 3.15152 11.1515C2.18182 11.1515 1.74545 11.1515 1.45455 11.1515C1.06667 11.1515 1.06667 11.1515 0.581818 11.1515H0.339394C0.242424 11.1515 0.145455 11.2 0.0969697 11.2485C0.0484848 11.2485 0 11.3939 0 11.4909V15.6121C0 23.5636 4.55758 25.2121 8.33939 25.2121C12.1212 25.2121 16.6303 23.5636 16.6303 15.6121V3.00604C16.6788 2.8121 16.5333 2.61816 16.2909 2.61816Z" fill="#000105"/>
<path d="M29.1394 7.75757C26.8606 7.75757 25.1637 8.87272 23.8061 10.1333L23.6121 8.48484C23.6121 8.2909 23.4182 8.14545 23.2727 8.14545H20.994C20.8 8.14545 20.6061 8.2909 20.6061 8.53333V24.4364C20.6061 24.6303 20.7515 24.8242 20.994 24.8242H23.7576C23.9515 24.8242 24.1455 24.6788 24.1455 24.4364V13.0909C25.7455 11.5879 26.7637 10.8606 28.2667 10.8606C30.2061 10.8606 31.0303 11.9757 31.0303 14.7394V24.4364C31.0303 24.6303 31.1758 24.8242 31.4182 24.8242H34.1818C34.3758 24.8242 34.5697 24.6788 34.5697 24.4364V14.4C34.5212 10.0364 32.6788 7.75757 29.1394 7.75757Z" fill="#000105"/>
<path d="M42.2303 8.19397H39.4666C39.2727 8.19397 39.0787 8.33942 39.0787 8.58185V24.4849C39.0787 24.6788 39.2242 24.8728 39.4666 24.8728H42.2303C42.4242 24.8728 42.6181 24.7273 42.6181 24.4849V8.53336C42.6181 8.29094 42.4727 8.19397 42.2303 8.19397Z" fill="#000105"/>
<path d="M55.806 22.1576C55.7575 22.0606 55.7091 21.9637 55.6121 21.9152C55.5151 21.8667 55.4182 21.8667 55.3212 21.9152C54.5939 22.1576 54.0121 22.3031 53.5757 22.3031C52.0242 22.3031 51.3939 21.5273 51.3939 19.5879V11.0546H55.4666C55.6606 11.0546 55.8545 10.9091 55.8545 10.6667V8.48488C55.8545 8.29094 55.7091 8.097 55.4666 8.097H51.3939V4.07275C51.3939 3.87881 51.2485 3.68488 51.006 3.68488H48.6788C48.4848 3.68488 48.3394 3.83033 48.3394 4.02427L48.0485 8.14548L45.8182 8.38791C45.6242 8.38791 45.4788 8.58185 45.4788 8.7273V10.7637C45.4788 10.9576 45.6242 11.1515 45.8666 11.1515H47.9515V19.5394C47.9515 23.2728 49.6485 25.2121 52.9939 25.2121C53.8666 25.2121 54.8848 25.0182 56.1454 24.5818C56.3394 24.5334 56.4363 24.3394 56.3879 24.1455L55.806 22.1576Z" fill="#000105"/>
<path fill-rule="evenodd" clip-rule="evenodd" d="M62.0606 9.74545C63.806 8.43636 65.503 7.75757 67.103 7.75757C71.4181 7.75757 73.9394 10.9091 74.0363 16.2909C74.0363 22.1576 70.303 25.2121 66.5697 25.2121C65.2606 25.2121 63.8545 24.7273 62.4 23.7576L62.4485 25.7939V31.1273C62.4485 31.3697 62.2545 31.5151 62.0606 31.5151H59.2969C59.0545 31.5151 58.9091 31.3212 58.9091 31.1273V8.53333C58.9091 8.2909 59.103 8.14545 59.2969 8.14545H61.5757C61.7212 8.14545 61.9151 8.2909 61.9151 8.48484L62.0606 9.74545ZM66.3757 10.7636C65.2121 10.7636 63.9515 11.3454 62.3515 12.703H62.4V20.703C63.5636 21.6727 64.9212 22.2061 66.0363 22.2061C68.606 22.2061 70.3515 19.7818 70.3515 16.2424C70.3515 12.6061 68.9939 10.7636 66.3757 10.7636Z" fill="#000105"/>
<path fill-rule="evenodd" clip-rule="evenodd" d="M77.0424 9.8909C79.2727 8.48484 81.503 7.75757 83.6849 7.75757C87.6606 7.75757 89.7455 10.1818 89.697 14.6424V24.4364C89.697 24.6788 89.503 24.8242 89.3091 24.8242H87.0303C86.8849 24.8242 86.6909 24.6788 86.6909 24.4848L86.5455 23.1273C84.703 24.4848 83.0061 25.1636 81.3091 25.1636C78.2061 25.1636 76.1212 23.1758 76.1212 20.2667C76.1212 16.6788 79.1758 14.8364 86.2061 14.0121C86.1091 11.7818 85.1394 10.7151 83.2 10.7151C81.7455 10.7151 80.1455 11.297 78.497 12.3636C78.4 12.4121 78.303 12.4121 78.2061 12.4121C78.1091 12.3636 78.0121 12.3151 77.9636 12.2182L76.897 10.3758C76.8 10.2303 76.897 9.98787 77.0424 9.8909ZM86.2061 20.4121V16.5818C80.3394 17.3091 79.5636 18.8121 79.5636 20.1697C79.5636 22.0606 81.1152 22.3515 82.0849 22.3515C83.5879 22.3515 84.8485 21.5758 86.2061 20.4121Z" fill="#000105"/>
<path d="M106.958 8.33939L107.006 8.24242H106.909C106.861 8.19393 106.764 8.14545 106.667 8.14545H103.952C103.806 8.14545 103.661 8.24242 103.612 8.38787L100.655 17.2121C100.509 17.7454 100.315 18.2788 100.17 18.8606C99.9758 19.5394 99.7818 20.2182 99.5394 20.8485C99.1515 19.7333 98.6667 18.3757 98.2303 17.1636L94.8849 8.38787C94.8364 8.24242 94.6909 8.14545 94.5455 8.14545H91.6849C91.5879 8.14545 91.4909 8.19393 91.4424 8.24242H91.3455L91.3939 8.33939C91.3455 8.43636 91.3455 8.53333 91.3939 8.6303L97.9394 24.4848L97.6 25.503C97.1152 26.9576 96.097 28.6545 94.2061 28.6545C93.8182 28.6545 93.2364 28.5091 93.0424 28.4606C92.9455 28.4121 92.8485 28.4606 92.7515 28.5091C92.6545 28.5576 92.6061 28.6545 92.5576 28.7515L92.0242 30.8848C91.9758 31.0788 92.0727 31.2727 92.2667 31.3212C92.897 31.5636 93.5758 31.6606 94.303 31.6606C98.2303 31.6606 99.8788 28.3636 100.8 25.8909L106.958 8.67878C107.006 8.53333 107.006 8.48484 106.958 8.33939Z" fill="#000105"/>
<path d="M40.9212 1.40603C39.6606 1.35755 38.5939 0.921182 37.9636 0.678757C37.4788 0.484818 37.2363 0.387848 36.9939 0.581788C36.9454 0.630273 36.8 0.824212 36.9454 1.06664C37.1879 1.69694 39.4666 5.57573 40.8727 5.57573C42.1818 5.57573 43.1515 4.65451 43.1515 3.49088C43.2 2.37573 42.2303 1.503 40.9212 1.40603Z" fill="#429A3A"/>
<path d="M3.15152 2.5697H0.387879C0.193939 2.5697 0 2.76364 0 3.00607V7.22425V7.56364C0 7.80607 0.193939 7.95152 0.387879 7.95152H3.15152C3.39394 7.95152 3.53939 7.75758 3.53939 7.56364V7.22425V3.00607C3.53939 2.81213 3.39394 2.5697 3.15152 2.5697Z" fill="#000105"/>
</svg>